<?xml version="1.0" standalone="no"?><!DOCTYPE svg PUBLIC "-//W3C//DTD SVG 1.1//EN" "http://www.w3.org/Graphics/SVG/1.1/DTD/svg11.dtd"><svg t="1499083293123" class="icon" style="" viewBox="0 0 1024 1024" version="1.1" xmlns="http://www.w3.org/2000/svg" p-id="23733" xmlns:xlink="http://www.w3.org/1999/xlink" width="32" height="32"><defs><style type="text/css"></style></defs><path d="M259.91168 764.08832l344.09984-160.08192 160.08192-344.09984L419.98336 419.98848 259.91168 764.08832zM511.99488 465.78688c25.63584 0 46.22336 20.79744 46.22336 46.21312s-20.58752 46.21824-46.22336 46.21824c-25.4208 0-46.21312-20.80256-46.21312-46.21824S486.57408 465.78688 511.99488 465.78688z" p-id="23734"></path><path d="M511.99488 91.84768c-232.13056 0-420.1472 188.01664-420.1472 420.15232 0 231.92064 188.01664 420.15232 420.1472 420.15232 232.13568 0 420.15744-188.23168 420.15744-420.15232C932.15232 279.86432 744.13056 91.84768 511.99488 91.84768zM511.99488 904.92928c-217.088 0-392.92928-176.03072-392.92928-392.92928 0-217.09312 175.84128-392.92928 392.92928-392.92928 217.10336 0 392.9344 175.83616 392.9344 392.92928C904.92928 728.89856 729.09824 904.92928 511.99488 904.92928z" p-id="23735"></path></svg>