<?xml version="1.0" standalone="no"?><!DOCTYPE svg PUBLIC "-//W3C//DTD SVG 1.1//EN" "http://www.w3.org/Graphics/SVG/1.1/DTD/svg11.dtd"><svg t="1499082739125" class="icon" style="" viewBox="0 0 1252 1024" version="1.1" xmlns="http://www.w3.org/2000/svg" p-id="15821" xmlns:xlink="http://www.w3.org/1999/xlink" width="244.53125" height="200"><defs><style type="text/css"></style></defs><path d="M348.055 348.334c-28.156 0-50.937-22.126-50.937-49.343 0-27.281 22.781-49.343 50.937-49.343 28.188 0 51 22.062 51 49.343 0 27.218-22.813 49.343-51 49.343M600.586 249.646c28.156 0 50.937 22.063 50.937 49.343 0 27.218-22.781 49.343-50.937 49.343-28.156 0-50.937-22.126-50.937-49.343 0-27.281 22.781-49.343 50.937-49.343M817.711 356.742c5.156 0 10.219 0.094 15.281 0.344-26.751-145.594-177.156-257.063-358.657-257.063-200.438 0-362.875 135.876-362.875 303.501 0 98.25 55.844 185.657 142.437 241.095 1.125 0.687 3.312 2.093 3.312 2.093l-35.063 109.812 131.187-66.813c0 0 4.093 1.188 6.156 1.781 36.093 10.031 74.719 15.5 114.844 15.5 8.188 0 16.313-0.344 24.375-0.781-7.437-23.063-11.531-47.344-11.531-72.406 0-153 148.031-277.062 330.532-277.062z" p-id="15822"></path><path d="M670.724 547.306c0-22.999 19.282-41.625 43.031-41.625 23.813 0 43.094 18.625 43.094 41.625 0 23.031-19.282 41.719-43.094 41.719-23.751 0-43.031-18.688-43.031-41.719M884.068 547.306c0-22.999 19.25-41.625 43.031-41.625 23.813 0 43.063 18.625 43.063 41.625 0 23.031-19.25 41.719-43.063 41.719-23.782 0-43.031-18.688-43.031-41.719M513.88 635.618c0 141.593 137.282 256.406 306.593 256.406 33.907 0 66.531-4.625 96.999-13.125 1.75-0.469 5.187-1.499 5.187-1.499l110.813 56.468-29.625-92.781c0 0 1.906-1.219 2.813-1.781 73.125-46.844 120.344-120.624 120.344-203.688 0-141.593-137.25-256.374-306.531-256.374-169.312 0-306.593 114.782-306.593 256.374z" p-id="15823"></path></svg>