<?xml version="1.0" standalone="no"?><!DOCTYPE svg PUBLIC "-//W3C//DTD SVG 1.1//EN" "http://www.w3.org/Graphics/SVG/1.1/DTD/svg11.dtd"><svg t="1499080782855" class="icon" style="" viewBox="0 0 1024 1024" version="1.1" xmlns="http://www.w3.org/2000/svg" p-id="9968" xmlns:xlink="http://www.w3.org/1999/xlink" width="200" height="200"><defs><style type="text/css"></style></defs><path d="M156.296533 847.940267a19.7632 19.7632 0 0 1-19.0464-14.5152 19.729067 19.729067 0 0 1 8.900267-22.2208c66.833067-40.055467 94.5152-98.338133 104.354133-125.5936-72.6272-55.662933-113.9712-132.573867-113.9712-213.137067 0-40.661333 10.1888-80.068267 30.3616-117.137067 19.2-35.345067 46.6432-67.012267 81.4592-94.122666 70.6304-54.920533 164.2496-85.1968 263.645867-85.1968 99.421867 0 193.041067 30.276267 263.6544 85.1968 34.816 27.076267 62.250667 58.743467 81.4848 94.122666 20.1472 37.034667 30.336 76.4416 30.336 117.137067 0 40.686933-10.180267 80.0512-30.336 117.1456-19.234133 35.319467-46.6688 67.0208-81.4848 94.139733-70.613333 54.894933-164.232533 85.1712-263.6544 85.1712-40.832 0-80.896-5.102933-119.2192-15.197866a814.1056 814.1056 0 0 1-86.5024 50.167466c-58.8032 29.2608-109.218133 44.0832-149.9392 44.0832l-0.042667-0.042666zM512 215.586133c-185.233067 0-335.9488 115.242667-335.9488 256.887467 0 71.7056 39.7312 140.8 108.919467 189.3888a19.8144 19.8144 0 0 1 7.765333 21.2992c-4.6336 17.245867-20.369067 64.5376-62.446933 110.199467 51.447467-18.030933 106.862933-49.297067 147.7632-77.431467a19.729067 19.729067 0 0 1 16.648533-2.730667c37.4528 10.692267 76.9536 16.1792 117.2992 16.1792 185.2672 0 335.957333-115.259733 335.957333-256.896-0.008533-141.6448-150.690133-256.896-335.957333-256.896z" p-id="9969"></path></svg>